HIERARCHY
ROOT Hips
{
	OFFSET -0.001795 -0.223333 0.028219
	CHANNELS 6 Xposition Yposition Zposition Zrotation Yrotation Xrotation 
	JOINT LeftUpLeg
	{
		OFFSET 0.069520 -0.091406 -0.006815
		CHANNELS 3 Zrotation Yrotation Xrotation
		JOINT LeftLeg
		{
			OFFSET 0.034277 -0.375199 -0.004496
			CHANNELS 3 Zrotation Yrotation Xrotation
			JOINT LeftFoot
			{
				OFFSET -0.013596 -0.397961 -0.043693
				CHANNELS 3 Zrotation Yrotation Xrotation
				JOINT LeftToe
				{
					OFFSET 0.026358 -0.055791 0.119288
					CHANNELS 3 Zrotation Yrotation Xrotation
					End Site
					{
						OFFSET 0.000000 0.000000 0.000000
					}
				}
			}
		}
	}
	JOINT RightUpLeg
	{
		OFFSET -0.067670 -0.090522 -0.004320
		CHANNELS 3 Zrotation Yrotation Xrotation
		JOINT RightLeg
		{
			OFFSET -0.038290 -0.382569 -0.008850
			CHANNELS 3 Zrotation Yrotation Xrotation
			JOINT RightFoot
			{
				OFFSET 0.015774 -0.398415 -0.042312
				CHANNELS 3 Zrotation Yrotation Xrotation
				JOINT RightToe
				{
					OFFSET -0.025372 -0.048144 0.123348
					CHANNELS 3 Zrotation Yrotation Xrotation
					End Site
					{
						OFFSET 0.000000 0.000000 0.000000
					}
				}
			}
		}
	}
	JOINT Spine
	{
		OFFSET -0.002533 0.108963 -0.026696
		CHANNELS 3 Zrotation Yrotation Xrotation
		JOINT Spine1
		{
			OFFSET 0.005487 0.135180 0.001092
			CHANNELS 3 Zrotation Yrotation Xrotation
			JOINT Spine2
			{
				OFFSET 0.001457 0.052922 0.025425
				CHANNELS 3 Zrotation Yrotation Xrotation
				JOINT Neck
				{
					OFFSET -0.002778 0.213870 -0.042857
					CHANNELS 3 Zrotation Yrotation Xrotation
					JOINT Head
					{
						OFFSET 0.005152 0.064970 0.051349
						CHANNELS 3 Zrotation Yrotation Xrotation
						End Site
						{
							OFFSET 0.000000 0.000000 0.000000
						}
					}
				}
				JOINT LeftShoulder
				{
					OFFSET 0.078845 0.121749 -0.034090
					CHANNELS 3 Zrotation Yrotation Xrotation
					JOINT LeftArm
					{
						OFFSET 0.090977 0.030469 -0.008868
						CHANNELS 3 Zrotation Yrotation Xrotation
						JOINT LeftForeArm
						{
							OFFSET 0.259612 -0.012772 -0.027456
							CHANNELS 3 Zrotation Yrotation Xrotation
							JOINT LeftHand
							{
								OFFSET 0.249234 0.008986 -0.001171
								CHANNELS 3 Zrotation Yrotation Xrotation
								End Site
								{
									OFFSET 0.000000 0.000000 0.000000
								}
							}
						}
					}
				}
				JOINT RightShoulder
				{
					OFFSET -0.081759 0.118833 -0.038615
					CHANNELS 3 Zrotation Yrotation Xrotation
					JOINT RightArm
					{
						OFFSET -0.096012 0.032551 -0.009143
						CHANNELS 3 Zrotation Yrotation Xrotation
						JOINT RightForeArm
						{
							OFFSET -0.253742 -0.013329 -0.021401
							CHANNELS 3 Zrotation Yrotation Xrotation
							JOINT RightHand
							{
								OFFSET -0.255298 0.007772 -0.005559
								CHANNELS 3 Zrotation Yrotation Xrotation
								End Site
								{
									OFFSET 0.000000 0.000000 0.000000
								}
							}
						}
					}
				}
			}
		}
	}
}
MOTION
Frames: 9
Frame Time: 0.050000
0.000000 0.960242 0.000000 0.103340 -4.056979 -5.589661 2.192313 0.905278 11.078004 -2.769897 0.423741 -8.007672 7.048191 15.823993 14.098505 0.000000 0.000000 0.000000 -3.875241 -0.377103 7.651422 3.934043 -0.402700 -3.277815 -1.053369 -6.688192 9.442472 0.000000 0.000000 0.000000 5.738564 -0.908678 11.128276 -6.849844 2.442962 -18.971729 -2.312366 6.622419 25.051471 10.522271 -3.700837 -26.943045 0.000000 0.000000 0.000000 -25.466038 -16.070583 6.694879 -43.219631 -5.391199 -4.749149 -5.482282 -23.167305 1.965311 0.000000 0.000000 0.000000 33.132500 3.055867 1.771249 48.753425 8.605912 -4.123590 6.155547 26.127892 2.625762 0.000000 0.000000 0.000000 
-0.000160 0.959030 0.000458 0.301225 -4.540989 -5.658839 1.814330 1.002157 11.628701 -2.527717 0.428687 -8.719526 7.272286 16.138394 14.154955 0.000000 0.000000 0.000000 -3.916071 -0.335244 7.166178 3.526966 -0.365661 -2.569883 -0.951274 -6.422164 9.119096 0.000000 0.000000 0.000000 6.045343 -0.945489 11.352939 -7.786275 2.728894 -18.756309 -2.485535 6.859166 24.302159 10.970529 -3.742065 -27.975926 0.000000 0.000000 0.000000 -24.629111 -16.359350 6.816257 -44.079897 -5.541635 -4.746096 -5.064669 -22.658238 1.839178 0.000000 0.000000 0.000000 33.199236 2.908231 1.618665 50.330272 7.447109 -4.576491 5.498922 27.469902 2.668263 0.000000 0.000000 0.000000 
-0.000188 0.958631 0.000639 0.309106 -4.408278 -5.440403 2.007672 0.932381 11.095160 -2.885075 0.435936 -8.202041 7.266446 16.118014 13.865104 0.000000 0.000000 0.000000 -3.892722 -0.334883 7.101340 3.243764 -0.349445 -2.971438 -0.740708 -6.093950 9.403120 0.000000 0.000000 0.000000 6.002431 -0.949177 11.365703 -7.739046 2.672186 -19.674301 -2.224944 6.597310 25.065237 10.378026 -3.477260 -28.046998 0.000000 0.000000 0.000000 -24.905125 -16.583532 7.090726 -43.531739 -5.698135 -4.737948 -5.308731 -22.225040 1.853066 0.000000 0.000000 0.000000 33.431554 3.119117 1.703152 49.126112 7.262009 -4.646132 6.703226 27.229692 2.885484 0.000000 0.000000 0.000000 
-0.000238 0.958911 0.000794 0.572200 -4.439949 -6.306703 1.606834 1.093298 12.403305 -2.611204 0.434313 -8.838765 7.152235 15.975508 14.161085 0.000000 0.000000 0.000000 -4.238243 -0.360482 8.039954 3.543699 -0.373240 -3.284005 -0.966944 -6.721997 9.887289 0.000000 0.000000 0.000000 6.074936 -1.013543 12.278257 -8.006138 2.781594 -19.316041 -2.604012 6.658287 24.958618 11.031440 -3.805960 -28.284391 0.000000 0.000000 0.000000 -25.029316 -17.575275 7.643423 -42.990013 -5.288025 -4.783658 -4.851436 -22.947654 1.813451 0.000000 0.000000 0.000000 34.054541 3.390766 1.937106 48.744516 7.036258 -4.736824 6.666714 27.782730 2.947183 0.000000 0.000000 0.000000 
-0.000260 0.959029 0.000874 0.520408 -4.202912 -6.427261 1.705947 1.078797 12.424210 -2.644670 0.430444 -8.665979 7.040685 15.816994 14.057658 0.000000 0.000000 0.000000 -4.097075 -0.386310 8.149163 3.328382 -0.362016 -3.417652 -0.989457 -6.912445 10.380032 0.000000 0.000000 0.000000 5.871900 -1.010314 12.457155 -7.441461 2.645033 -18.680433 -2.868642 6.395196 24.240075 10.765622 -3.804064 -27.366906 0.000000 0.000000 0.000000 -25.049629 -17.480066 7.577610 -43.136780 -5.478371 -4.675483 -5.209970 -23.485800 1.930649 0.000000 0.000000 0.000000 33.986741 3.581619 1.985225 48.609601 6.908873 -4.677955 6.820765 27.531536 2.923884 0.000000 0.000000 0.000000 
-0.000249 0.959390 0.000994 0.555675 -4.268592 -6.522204 1.522248 1.112216 12.565120 -2.390895 0.420399 -8.717606 7.063106 15.855223 14.200475 0.000000 0.000000 0.000000 -4.047721 -0.402262 8.379821 3.339191 -0.364179 -3.651155 -1.143307 -7.246405 10.469488 0.000000 0.000000 0.000000 5.887011 -1.021217 12.607206 -7.452543 2.634064 -18.998722 -2.868471 6.339730 24.530855 10.697809 -3.722116 -27.759731 0.000000 0.000000 0.000000 -24.976461 -17.801506 7.813771 -43.101095 -5.546003 -4.682528 -5.348386 -23.956681 2.002239 0.000000 0.000000 0.000000 33.970242 3.838429 2.141888 48.472491 7.042791 -4.636494 6.759047 26.904696 2.821674 0.000000 0.000000 0.000000 
-0.000239 0.959297 0.001052 0.534721 -4.077844 -6.460092 1.566332 1.089691 12.430681 -2.411779 0.417895 -8.625020 6.986925 15.744931 14.095267 0.000000 0.000000 0.000000 -3.966961 -0.407546 8.258414 3.122578 -0.351311 -3.612706 -1.100137 -7.206795 10.657353 0.000000 0.000000 0.000000 5.864545 -1.023220 12.609251 -7.268485 2.590738 -18.780708 -2.992552 6.177292 24.352678 10.716032 -3.742625 -27.701908 0.000000 0.000000 0.000000 -24.954252 -17.559634 7.669701 -43.239342 -5.565393 -4.677803 -5.598852 -24.634857 2.118954 0.000000 0.000000 0.000000 33.859902 3.819713 2.102061 48.601779 6.984987 -4.638444 7.003357 26.864432 2.868754 0.000000 0.000000 0.000000 
-0.000233 0.959308 0.001089 0.551621 -3.839156 -6.330390 1.522377 1.060187 12.138718 -2.351114 0.408992 -8.406426 6.904854 15.625963 13.989985 0.000000 0.000000 0.000000 -3.930998 -0.410530 8.170066 3.023245 -0.346173 -3.594567 -1.172547 -7.296586 10.587104 0.000000 0.000000 0.000000 5.882604 -1.035993 12.670452 -7.240999 2.583499 -18.855844 -3.059986 6.183946 24.312652 10.831195 -3.799876 -27.604136 0.000000 0.000000 0.000000 -24.743502 -17.684064 7.674567 -43.282719 -5.592970 -4.655865 -5.936951 -25.140967 2.235095 0.000000 0.000000 0.000000 33.631749 3.605109 2.020637 48.816367 7.035692 -4.645988 7.210071 26.612369 2.892140 0.000000 0.000000 0.000000 
-0.000224 0.959352 0.001086 0.587514 -3.741011 -6.297665 1.438210 1.063996 12.118733 -2.263513 0.405111 -8.459154 6.857246 15.560314 14.006553 0.000000 0.000000 0.000000 -4.001398 -0.408583 8.217293 2.925270 -0.341652 -3.713732 -1.009669 -6.996962 10.658049 0.000000 0.000000 0.000000 5.809608 -1.039202 12.770065 -7.186461 2.564618 -18.952573 -3.027110 6.264168 24.343907 10.809415 -3.760711 -27.641859 0.000000 0.000000 0.000000 -24.855519 -17.611526 7.592120 -43.236274 -5.638948 -4.623421 -6.174052 -25.261879 2.295551 0.000000 0.000000 0.000000 33.601162 3.640922 2.110218 48.706303 6.930811 -4.701580 7.227816 26.624631 2.900442 0.000000 0.000000 0.000000 
